<?xml version="1.0" encoding="utf-8"?>
<!-- Generator: Adobe Illustrator 27.5.0, SVG Export Plug-In . SVG Version: 6.00 Build 0)  -->
<svg version="1.1" xmlns="http://www.w3.org/2000/svg" xmlns:xlink="http://www.w3.org/1999/xlink" x="0px" y="0px"
	 viewBox="0 0 1122 1122" style="enable-background:new 0 0 1122 1122;" xml:space="preserve">
<g id="Bg">
	<rect style="fill:#FFFFFF;" width="1122" height="1122"/>
</g>
<g id="Object">
	<g>
		<path style="fill:#616E7D;" d="M236.032,234.301L236.032,234.301v635.617c0,4.688,1.888,9.266,5.18,12.582
			c3.317,3.307,7.898,5.198,12.589,5.198h621.861v-35.558H271.57v-617.84H236.032z"/>
		<path style="fill:#AAD4C8;" d="M859.212,459.162c14.779,0,26.756-11.977,26.756-26.747V322.153c0-7.045-2.844-13.926-7.825-18.907
			c-4.975-4.984-11.874-7.837-18.931-7.837H756.993c-14.779,0-26.762,11.971-26.762,26.744c0,14.779,11.983,26.756,26.762,26.756
			h35.32L603.561,571.77l-0.969-67.002c-0.169-11.151-7.244-21.043-17.732-24.798c-10.482-3.767-22.229-0.62-29.437,7.889
			L308.209,779.755c-9.562,11.275-8.171,28.157,3.117,37.708c11.275,9.55,28.148,8.146,37.704-3.129l201.067-237.416l0.98,67.008
			c0.157,11.145,7.214,21.037,17.721,24.802c10.482,3.755,22.235,0.602,29.437-7.895l234.239-276.563v48.147
			C832.474,447.185,844.457,459.162,859.212,459.162z"/>
	</g>
</g>
</svg>
